<?xml version="1.0" encoding="UTF-8" standalone="no"?>
<!-- Created with Inkscape (http://www.inkscape.org/) -->

<svg
   xmlns:dc="http://purl.org/dc/elements/1.1/"
   xmlns:cc="http://creativecommons.org/ns#"
   xmlns:rdf="http://www.w3.org/1999/02/22-rdf-syntax-ns#"
   xmlns:svg="http://www.w3.org/2000/svg"
   xmlns="http://www.w3.org/2000/svg"
   xmlns:sodipodi="http://sodipodi.sourceforge.net/DTD/sodipodi-0.dtd"
   xmlns:inkscape="http://www.inkscape.org/namespaces/inkscape"
   sodipodi:docname="HakonLaser.svg"
   viewBox="0 0 1113.0183 1475.9444"
   height="1475.9443"
   width="1113.0183"
   xml:space="preserve"
   id="svg815"
   version="1.1"
   inkscape:version="0.92.4 (5da689c313, 2019-01-14)"><metadata
     id="metadata821"><rdf:RDF><cc:Work
         rdf:about=""><dc:format>image/svg+xml</dc:format><dc:type
           rdf:resource="http://purl.org/dc/dcmitype/StillImage" /><dc:title></dc:title></cc:Work></rdf:RDF></metadata><defs
     id="defs819" /><sodipodi:namedview
     pagecolor="#ffffff"
     bordercolor="#666666"
     borderopacity="1"
     objecttolerance="10"
     gridtolerance="10"
     guidetolerance="10"
     inkscape:pageopacity="0"
     inkscape:pageshadow="2"
     inkscape:window-width="1920"
     inkscape:window-height="1051"
     id="namedview817"
     showgrid="false"
     inkscape:zoom="0.71090069"
     inkscape:cx="393.12318"
     inkscape:cy="530.77497"
     inkscape:window-x="-9"
     inkscape:window-y="-9"
     inkscape:window-maximized="1"
     inkscape:current-layer="g823" /><g
     id="g823"
     inkscape:groupmode="layer"
     inkscape:label="HakonLaser"
     transform="matrix(1.3333333,0,0,1.3333333,-4.3727033,-4.3727033)"><g
       id="g825"
       transform="translate(-98.209051,-14.620043)"><path
         d="m 484.45348,984.67207 -7.5,1.551 v -27.613 l -28.141,5.824 v 27.613 l -7.5,1.551 v -56.402 l 7.5,-1.551 v 22.121 l 28.141,-5.82 v -22.122 l 7.5,-1.55 z"
         style="fill:#000000;fill-opacity:1;fill-rule:nonzero;stroke:none"
         id="path827"
         inkscape:connector-curvature="0" /><path
         d="m 531.95348,974.84807 -7.082,1.465 v -4.508 c -0.633,0.559 -1.493,1.344 -2.579,2.351 -1.058,0.977 -2.093,1.797 -3.105,2.461 -1.188,0.825 -2.551,1.586 -4.09,2.286 -1.539,0.722 -3.348,1.296 -5.418,1.726 -3.812,0.789 -7.043,0.195 -9.695,-1.781 -2.653,-1.977 -3.977,-4.922 -3.977,-8.836 0,-3.207 0.68,-5.938 2.047,-8.191 1.387,-2.282 3.356,-4.254 5.906,-5.918 2.578,-1.668 5.668,-3.079 9.282,-4.231 3.609,-1.152 7.488,-2.254 11.629,-3.312 v -1.102 c 0,-1.613 -0.293,-2.894 -0.872,-3.832 -0.554,-0.945 -1.363,-1.613 -2.425,-2 -1.008,-0.371 -2.223,-0.512 -3.637,-0.422 -1.414,0.09 -2.891,0.297 -4.43,0.613 -1.871,0.387 -3.953,1.071 -6.25,2.051 -2.297,0.957 -4.672,2.153 -7.121,3.594 l -0.379,0.078 v -7.234 c 1.387,-0.664 3.395,-1.496 6.024,-2.496 2.625,-0.996 5.215,-1.762 7.765,-2.289 2.977,-0.614 5.567,-0.899 7.762,-0.848 2.223,0.019 4.145,0.457 5.758,1.308 1.594,0.833 2.805,2.086 3.637,3.758 0.832,1.668 1.25,3.867 1.25,6.594 z m -7.082,-8.953 v -11.781 c -2.172,0.578 -4.735,1.296 -7.692,2.16 -2.93,0.859 -5.25,1.707 -6.969,2.539 -2.043,1.004 -3.699,2.258 -4.961,3.754 -1.261,1.476 -1.894,3.285 -1.894,5.429 0,2.426 0.734,4.106 2.195,5.039 1.465,0.911 3.703,1.055 6.707,0.43 2.5,-0.516 4.785,-1.469 6.856,-2.855 2.07,-1.414 3.988,-2.985 5.758,-4.715 z"
         style="fill:#000000;fill-opacity:1;fill-rule:nonzero;stroke:none"
         id="path829"
         inkscape:connector-curvature="0" /><path
         d="m 584.14848,964.04707 -9.395,1.945 -16.968,-15.011 -4.622,5.347 v 14.129 l -7.121,1.473 v -58.938 l 7.121,-1.472 v 37.804 l 20.567,-25.429 8.98,-1.86 -19.66,23.614 z"
         style="fill:#000000;fill-opacity:1;fill-rule:nonzero;stroke:none"
         id="path831"
         inkscape:connector-curvature="0" /><path
         d="m 626.94948,934.05907 c 0,6.894 -1.766,12.699 -5.301,17.422 -3.535,4.722 -8.27,7.695 -14.203,8.922 -5.989,1.238 -10.746,0.23 -14.282,-3.028 -3.511,-3.265 -5.265,-8.344 -5.265,-15.238 0,-6.895 1.754,-12.699 5.265,-17.414 3.536,-4.746 8.293,-7.738 14.282,-8.977 5.933,-1.226 10.668,-0.199 14.203,3.086 3.535,3.258 5.301,8.332 5.301,15.227 z m -7.348,1.519 c 0,-5.48 -1.074,-9.324 -3.219,-11.531 -2.148,-2.23 -5.125,-2.953 -8.937,-2.164 -3.867,0.797 -6.871,2.758 -9.016,5.879 -2.121,3.09 -3.183,7.375 -3.183,12.855 0,5.301 1.074,9.11 3.218,11.418 2.149,2.282 5.141,3.028 8.981,2.235 3.785,-0.785 6.754,-2.75 8.898,-5.895 2.172,-3.179 3.258,-7.441 3.258,-12.797 z"
         style="fill:#000000;fill-opacity:1;fill-rule:nonzero;stroke:none"
         id="path833"
         inkscape:connector-curvature="0" /><path
         d="m 673.38648,945.58607 -7.121,1.477 v -24.094 c 0,-1.941 -0.113,-3.738 -0.34,-5.383 -0.226,-1.668 -0.644,-2.922 -1.25,-3.754 -0.629,-0.933 -1.539,-1.527 -2.726,-1.785 -1.188,-0.285 -2.727,-0.23 -4.621,0.16 -1.946,0.403 -3.977,1.301 -6.098,2.699 -2.121,1.399 -4.152,3.043 -6.098,4.938 v 31.59 l -7.121,1.472 v -42.308 l 7.121,-1.473 v 4.696 c 2.223,-2.305 4.52,-4.219 6.895,-5.743 2.371,-1.527 4.808,-2.55 7.308,-3.066 4.571,-0.945 8.055,-0.289 10.453,1.965 2.399,2.258 3.598,5.972 3.598,11.148 z"
         style="fill:#000000;fill-opacity:1;fill-rule:nonzero;stroke:none"
         id="path835"
         inkscape:connector-curvature="0" /></g><path
       id="path1182"
       inkscape:label="part"
       style="fill:none;stroke:#000000;stroke-width:1"
       d="m 182.17323,561.25984 h 43.19141 v -11.71653 h 43.70164 v 11.71653 h 43.02134 v -11.71653 h 43.70164 v 11.71653 h 43.02133 v -11.71653 h 43.70165 v 11.71653 h 43.02133 v -11.71653 h 43.70165 v 11.71653 h 43.02133 v -11.71653 h 43.70164 v 11.71653 h 43.19141"
       inkscape:connector-curvature="0" /><path
       id="path1184"
       inkscape:label="part"
       style="fill:none;stroke:#000000;stroke-width:1"
       d="m 414.80315,607.91811 v 57.86457 h 11.71653 v -57.86457 h -11.71653"
       inkscape:connector-curvature="0" /><path
       id="path1186"
       inkscape:label="part"
       style="fill:none;stroke:#000000;stroke-width:1"
       d="m 659.1496,561.25984 v 46.65827 h -11.71653 v 57.86457 h 11.71653 v 46.65826"
       inkscape:connector-curvature="0" /><path
       id="path1188"
       inkscape:label="part"
       style="fill:none;stroke:#000000;stroke-width:1"
       d="m 659.1496,712.44094 h -43.19141 v 11.71654 h -43.70164 v -11.71654 h -43.02133 v 11.71654 h -43.70165 v -11.71654 h -43.02133 v 11.71654 h -43.70165 v -11.71654 h -43.02133 v 11.71654 h -43.70164 v -11.71654 h -43.02134 v 11.71654 h -43.70164 v -11.71654 h -43.19141"
       inkscape:connector-curvature="0" /><path
       id="path1190"
       inkscape:label="part"
       style="fill:none;stroke:#000000;stroke-width:1"
       d="m 182.17323,712.44094 v -46.65826 h 11.71653 v -57.86457 h -11.71653 v -46.65827"
       inkscape:connector-curvature="0" /><path
       id="path1192"
       inkscape:label="part"
       style="fill:none;stroke:#000000;stroke-width:1"
       d="m 15.496063,193.88976 h 46.31811 v -11.71653 h 58.544877 v 11.71653 h 46.31811"
       inkscape:connector-curvature="0" /><path
       id="path1194"
       inkscape:label="part"
       style="fill:none;stroke:#000000;stroke-width:1"
       d="m 166.67716,193.88976 v 28.51234 h 11.71654 v 40.73911 H 166.67716 V 303.2 h 11.71654 v 40.73911 h -11.71654 v 40.05879 h 11.71654 v 40.73911 h -11.71654 v 40.05879 h 11.71654 v 40.73911 h -11.71654 v 28.51233"
       inkscape:connector-curvature="0" /><path
       id="path1196"
       inkscape:label="part"
       style="fill:none;stroke:#000000;stroke-width:1"
       d="m 166.67716,534.04724 h -46.31811 v 11.71654 H 61.814173 v -11.71654 h -46.31811"
       inkscape:connector-curvature="0" /><path
       id="path1198"
       inkscape:label="part"
       style="fill:none;stroke:#000000;stroke-width:1"
       d="M 15.496063,534.04724 V 505.53491 H 3.7795276 V 464.7958 H 15.496063 V 424.73701 H 3.7795276 V 383.9979 H 15.496063 V 343.93911 H 3.7795276 V 303.2 H 15.496063 V 263.14121 H 3.7795276 V 222.4021 H 15.496063 v -28.51234"
       inkscape:connector-curvature="0" /><path
       id="path1200"
       inkscape:label="part"
       style="fill:none;stroke:#000000;stroke-width:1"
       d="m 11.716535,586.82438 h 46.31811 v -11.71654 h 58.544885 v 11.71654 h 46.31811"
       inkscape:connector-curvature="0" /><path
       id="path1202"
       inkscape:label="part"
       style="fill:none;stroke:#000000;stroke-width:1"
       d="m 162.89764,586.82438 v 28.51233 0 40.73911 0 40.05879 0 40.73911 0 40.05879 0 40.73911 0 40.05879 0 40.73911 0 28.51234"
       inkscape:connector-curvature="0" /><path
       id="path1204"
       inkscape:label="part"
       style="fill:none;stroke:#000000;stroke-width:1"
       d="m 162.89764,926.98186 h -46.31811 v 11.71653 H 58.034645 v -11.71653 h -46.31811"
       inkscape:connector-curvature="0" /><path
       id="path1206"
       inkscape:label="part"
       style="fill:none;stroke:#000000;stroke-width:1"
       d="m 11.716535,926.98186 v -28.51234 0 -40.73911 0 -40.05879 0 -40.73911 0 -40.05879 0 -40.73911 0 -40.05879 0 -40.73911 0 -28.51233"
       inkscape:connector-curvature="0" /><path
       id="path1208"
       inkscape:label="part"
       style="fill:none;stroke:#000000;stroke-width:1"
       d="m 182.17323,182.17323 h 43.53157 v 11.71653 h 43.02133 v -11.71653 h 43.70164 v 11.71653 h 43.02133 v -11.71653 h 43.70165 v 11.71653 h 43.02133 v -11.71653 h 43.70165 v 11.71653 h 43.02133 v -11.71653 h 43.70165 v 11.71653 h 43.02133 v -11.71653 h 43.53156"
       inkscape:connector-curvature="0" /><path
       id="path1210"
       inkscape:label="part"
       style="fill:none;stroke:#000000;stroke-width:1"
       d="m 659.1496,182.17323 v 40.56903 h -11.71653 v 40.05879 h 11.71653 v 40.73911 h -11.71653 v 40.05879 h 11.71653 v 40.73911 h -11.71653 v 40.05879 h 11.71653 v 40.73911 h -11.71653 v 40.05879 h 11.71653 v 40.56903"
       inkscape:connector-curvature="0" /><path
       id="path1212"
       inkscape:label="part"
       style="fill:none;stroke:#000000;stroke-width:1"
       d="m 659.1496,545.76378 h -43.53156 v -11.71654 h -43.02133 v 11.71654 h -43.70165 v -11.71654 h -43.02133 v 11.71654 h -43.70165 v -11.71654 h -43.02133 v 11.71654 H 355.4491 v -11.71654 h -43.02133 v 11.71654 H 268.72613 V 534.04724 H 225.7048 v 11.71654 h -43.53157"
       inkscape:connector-curvature="0" /><path
       id="path1214"
       inkscape:label="part"
       style="fill:none;stroke:#000000;stroke-width:1"
       d="m 182.17323,545.76378 v -40.56903 h 11.71653 v -40.05879 h -11.71653 v -40.73911 h 11.71653 v -40.05879 h -11.71653 v -40.73911 h 11.71653 v -40.05879 h -11.71653 v -40.73911 h 11.71653 v -40.05879 h -11.71653 v -40.56903"
       inkscape:connector-curvature="0" /><path
       id="path1216"
       inkscape:label="part"
       style="fill:none;stroke:#000000;stroke-width:1"
       d="m 674.64567,193.88976 h 46.31811 v -11.71653 h 58.54488 v 11.71653 h 46.31811"
       inkscape:connector-curvature="0" /><path
       id="path1218"
       inkscape:label="part"
       style="fill:none;stroke:#000000;stroke-width:1"
       d="m 825.82677,193.88976 v 28.51234 h 11.71653 v 40.73911 H 825.82677 V 303.2 h 11.71653 v 40.73911 h -11.71653 v 40.05879 h 11.71653 v 40.73911 h -11.71653 v 40.05879 h 11.71653 v 40.73911 h -11.71653 v 28.51233"
       inkscape:connector-curvature="0" /><path
       id="path1220"
       inkscape:label="part"
       style="fill:none;stroke:#000000;stroke-width:1"
       d="m 825.82677,534.04724 h -46.31811 v 11.71654 h -58.54488 v -11.71654 h -46.31811"
       inkscape:connector-curvature="0" /><path
       id="path1222"
       inkscape:label="part"
       style="fill:none;stroke:#000000;stroke-width:1"
       d="M 674.64567,534.04724 V 505.53491 H 662.92913 V 464.7958 h 11.71654 V 424.73701 H 662.92913 V 383.9979 h 11.71654 V 343.93911 H 662.92913 V 303.2 h 11.71654 V 263.14121 H 662.92913 V 222.4021 h 11.71654 v -28.51234"
       inkscape:connector-curvature="0" /><path
       id="path1224"
       inkscape:label="part"
       style="fill:none;stroke:#000000;stroke-width:1"
       d="m 223.63695,746.14729 h 43.53157 v 11.71654 h 43.02133 v -11.71654 h 43.70165 v 11.71654 h 43.02133 v -19.21654 h 43.70164 v 19.21654 h 43.02133 v -19.21654 h 43.70165 v 19.21654 h 43.02133 v -11.71654 h 43.70165 v 11.71654 h 43.02133 v -11.71654 h 43.53157"
       inkscape:connector-curvature="0"
       sodipodi:nodetypes="cccccccccccccccccccccc" /><path
       id="path1226"
       inkscape:label="part"
       style="fill:none;stroke:#000000;stroke-width:1"
       d="m 700.61333,746.14729 v 40.56903 h -11.71654 v 40.0588 h 11.71654 v 40.7391 h -11.71654 v 40.0588 h 11.71654 v 40.7391 h -11.71654 v 40.0588 h 11.71654 V 1029.11 h -11.71654 v 40.0588 h 11.71654 v 40.569"
       inkscape:connector-curvature="0" /><path
       id="path1228"
       inkscape:label="part"
       style="fill:none;stroke:#000000;stroke-width:1"
       d="m 700.61333,1109.7378 h -43.53157 v -11.7165 h -43.02133 v 11.7165 h -43.70165 v -11.7165 h -43.02133 v 11.7165 H 483.6358 v -11.7165 h -43.02133 v 11.7165 h -43.70164 v -11.7165 H 353.8915 v 11.7165 h -43.70165 v -11.7165 h -43.02133 v 11.7165 h -43.53157"
       inkscape:connector-curvature="0" /><path
       id="path1230"
       inkscape:label="part"
       style="fill:none;stroke:#000000;stroke-width:1"
       d="m 223.63695,1109.7378 v -40.569 h 11.71654 V 1029.11 h -11.71654 v -40.73908 h 11.71654 v -40.0588 h -11.71654 v -40.7391 h 11.71654 v -40.0588 h -11.71654 v -40.7391 h 11.71654 v -40.0588 h -11.71654 v -40.56903"
       inkscape:connector-curvature="0" /><path
       id="path1232"
       inkscape:label="part"
       style="fill:none;stroke:#000000;stroke-width:1"
       d="m 182.17323,15.496063 h 43.19141 V 3.7795276 h 43.70164 V 15.496063 h 43.02134 V 3.7795276 h 43.70164 V 15.496063 h 43.02133 V 3.7795276 h 43.70165 V 15.496063 h 43.02133 V 3.7795276 h 43.70165 V 15.496063 h 43.02133 V 3.7795276 h 43.70164 V 15.496063 h 43.19141"
       inkscape:connector-curvature="0" /><path
       id="path1234"
       inkscape:label="part"
       style="fill:none;stroke:#000000;stroke-width:1"
       d="m 414.80315,62.15433 v 57.86457 h 11.71653 V 62.15433 h -11.71653"
       inkscape:connector-curvature="0" /><path
       id="path1236"
       inkscape:label="part"
       style="fill:none;stroke:#000000;stroke-width:1"
       d="M 659.1496,15.496063 V 62.15433 h -11.71653 v 57.86457 h 11.71653 v 46.65826"
       inkscape:connector-curvature="0" /><path
       id="path1238"
       inkscape:label="part"
       style="fill:none;stroke:#000000;stroke-width:1"
       d="M 659.1496,166.67716 H 615.95819 V 178.3937 H 572.25655 V 166.67716 H 529.23522 V 178.3937 H 485.53357 V 166.67716 H 442.51224 V 178.3937 H 398.81059 V 166.67716 H 355.78926 V 178.3937 H 312.08762 V 166.67716 H 269.06628 V 178.3937 H 225.36464 V 166.67716 H 182.17323"
       inkscape:connector-curvature="0" /><path
       id="path1240"
       inkscape:label="part"
       style="fill:none;stroke:#000000;stroke-width:1"
       d="M 182.17323,166.67716 V 120.0189 h 11.71653 V 62.15433 H 182.17323 V 15.496063"
       inkscape:connector-curvature="0" /></g><g
     id="g1243"
     inkscape:groupmode="layer"
     inkscape:label="newlayer"
     transform="translate(-4.3727033,-4.3727367)" /></svg>